<?xml version="1.0" standalone="no"?><!DOCTYPE svg PUBLIC "-//W3C//DTD SVG 1.1//EN" "http://www.w3.org/Graphics/SVG/1.1/DTD/svg11.dtd"><svg t="1622213517758" class="icon" viewBox="0 0 1024 1024" version="1.1" xmlns="http://www.w3.org/2000/svg" p-id="8632" xmlns:xlink="http://www.w3.org/1999/xlink" width="200" height="200"><defs><style type="text/css"></style></defs><path d="M855.880597 379.310719L529.367707 52.797829c-1.389417-1.389417-2.778833-2.778833-5.557666-4.16825-2.778833-2.778833-5.557666-4.16825-9.725916-5.557666-5.557666-2.778833-12.504749-4.16825-19.451832-4.168249-15.283582 0-27.788331 6.947083-37.514247 16.672998L134.773406 379.310719c-19.451832 19.451832-19.451832 50.018996 0 68.081411 19.451832 19.451832 50.018996 19.451832 68.081411 0L444.613297 205.63365v430.719132c0 27.788331 22.230665 50.018996 50.018996 50.018995s50.018996-22.230665 50.018996-50.018995v-430.719132l243.147897 243.147897c19.451832 19.451832 50.018996 19.451832 68.081411 0 18.062415-19.451832 18.062415-51.408412 0-69.470828z m-361.248304 382.089552c-27.788331 0-50.018996 22.230665-50.018996 50.018996s22.230665 50.018996 50.018996 50.018996 50.018996-22.230665 50.018996-50.018996-22.230665-50.018996-50.018996-50.018996z m0 123.658074c-27.788331 0-50.018996 22.230665-50.018996 50.018996s22.230665 50.018996 50.018996 50.018995 50.018996-22.230665 50.018996-50.018995-22.230665-50.018996-50.018996-50.018996z" p-id="8633" fill="#d81e06"></path></svg>